<svg id="Calque_1" data-name="Calque 1" xmlns="http://www.w3.org/2000/svg" viewBox="0 0 542.39 214.18"><defs><style>.cls-1{font-size:117.83px;stroke:#033;stroke-miterlimit:10;stroke-width:8px;font-family:MyriadPro-Regular, Myriad Pro;letter-spacing:0.15em;}.cls-1,.cls-2{fill:#033;}.cls-3{fill:#f69;}.cls-4{fill:#3ff;}</style></defs><text class="cls-1" transform="translate(4 180.72)">Biizina</text><path class="cls-2" d="M418.05,60.58l-48,44.05A3.12,3.12,0,0,0,371.4,110L427,124.19a4.58,4.58,0,0,0,5.65-5.19l-9.45-56.64A3.11,3.11,0,0,0,418.05,60.58Z" transform="translate(-5.81 -13.47)"/><path class="cls-3" d="M439.85,18.11l7.31,89.2a4.29,4.29,0,0,0,6.9,3L516.43,62a6.29,6.29,0,0,0-.86-10.5L446.16,14A4.29,4.29,0,0,0,439.85,18.11Z" transform="translate(-5.81 -13.47)"/><path class="cls-4" d="M478,100.38l-39.58,91.1c-1.51,3.46,2.06,7.48,6.25,7.05L542,188.7c5.61-.56,8.07-6.24,4.66-10.72l-59.21-77.85C484.87,96.78,479.51,96.92,478,100.38Z" transform="translate(-5.81 -13.47)"/></svg>